<svg version="1.0" xmlns="http://www.w3.org/2000/svg"
 width="88.000000pt" height="89.000000pt" viewBox="0 0 88.000000 89.000000"
 preserveAspectRatio="xMidYMid meet">
<g transform="translate(0.000000,89.000000) scale(0.100000,-0.100000)"
fill="#000000" stroke="none">
<path d="M0 445 l0 -445 440 0 440 0 0 445 0 445 -440 0 -440 0 0 -445z m312
92 c69 -170 128 -310 130 -312 2 -2 61 138 132 311 l128 314 79 0 79 0 0 -410
0 -410 -60 0 -60 0 -2 291 -3 291 -119 -292 -119 -291 -55 3 -56 3 -116 283
-115 283 -3 -285 -2 -286 -65 0 -65 0 0 410 0 411 82 -3 83 -3 127 -308z"/>
</g>
</svg>